<svg width="32" height="32" viewBox="0 0 32 32" fill="none" xmlns="http://www.w3.org/2000/svg">
<g clip-path="url(#clip0)" filter="url(#filter0_d)">
<path d="M23 6.00001H18.321C17.9224 5.71592 17.4744 5.50839 17 5.38801V5.00001L20.53 3.34801C20.6747 3.25832 20.7941 3.13318 20.8769 2.98443C20.9598 2.83568 21.0032 2.66825 21.0032 2.49801C21.0032 2.32776 20.9598 2.16033 20.8769 2.01158C20.7941 1.86283 20.6747 1.73769 20.53 1.64801L17.33 0.148006C17.0802 0.0312575 16.8049 -0.0204779 16.5297 -0.0023985C16.2545 0.0156809 15.9883 0.102989 15.7559 0.251422C15.5235 0.399855 15.3323 0.604601 15.2002 0.846656C15.068 1.08871 14.9992 1.36023 15 1.63601V5.38801C14.5258 5.50822 14.0782 5.71577 13.68 6.00001H9C7.67441 6.00159 6.40356 6.52889 5.46622 7.46623C4.52888 8.40356 4.00159 9.67441 4 11L4 21C4 21.7957 4.31607 22.5587 4.87868 23.1213C5.44129 23.6839 6.20435 24 7 24H25C25.7956 24 26.5587 23.6839 27.1213 23.1213C27.6839 22.5587 28 21.7957 28 21V11C27.9984 9.67441 27.4711 8.40356 26.5338 7.46623C25.5964 6.52889 24.3256 6.00159 23 6.00001ZM25.816 10H23.657C22.8618 9.99798 22.0995 9.68208 21.536 9.12101L20.414 8.00001H23C23.6183 8.00257 24.2206 8.19609 24.7247 8.55409C25.2288 8.9121 25.6099 9.4171 25.816 10ZM9 8.00001H11.586L10.464 9.12101C9.90047 9.68208 9.13821 9.99798 8.343 10H6.184C6.39008 9.4171 6.77123 8.9121 7.2753 8.55409C7.77937 8.19609 8.38174 8.00257 9 8.00001ZM17 22H15V19C15 18.7348 15.1054 18.4804 15.2929 18.2929C15.4804 18.1054 15.7348 18 16 18C16.2652 18 16.5196 18.1054 16.7071 18.2929C16.8946 18.4804 17 18.7348 17 19V22ZM25 22H19V19C19 18.2044 18.6839 17.4413 18.1213 16.8787C17.5587 16.3161 16.7956 16 16 16C15.2044 16 14.4413 16.3161 13.8787 16.8787C13.3161 17.4413 13 18.2044 13 19V22H7C6.73478 22 6.48043 21.8946 6.29289 21.7071C6.10536 21.5196 6 21.2652 6 21V12H8.343C8.99982 12.0016 9.65043 11.873 10.2572 11.6215C10.864 11.37 11.4149 11.0008 11.878 10.535L14.586 7.82801C14.9611 7.45306 15.4697 7.24243 16 7.24243C16.5303 7.24243 17.0389 7.45306 17.414 7.82801L20.122 10.535C20.5851 11.0008 21.136 11.37 21.7428 11.6215C22.3496 11.873 23.0002 12.0016 23.657 12H26V21C26 21.2652 25.8946 21.5196 25.7071 21.7071C25.5196 21.8946 25.2652 22 25 22ZM11 15C11 15.2652 10.8946 15.5196 10.7071 15.7071C10.5196 15.8946 10.2652 16 10 16H9C8.73478 16 8.48043 15.8946 8.29289 15.7071C8.10536 15.5196 8 15.2652 8 15C8 14.7348 8.10536 14.4804 8.29289 14.2929C8.48043 14.1054 8.73478 14 9 14H10C10.2652 14 10.5196 14.1054 10.7071 14.2929C10.8946 14.4804 11 14.7348 11 15ZM11 19C11 19.2652 10.8946 19.5196 10.7071 19.7071C10.5196 19.8946 10.2652 20 10 20H9C8.73478 20 8.48043 19.8946 8.29289 19.7071C8.10536 19.5196 8 19.2652 8 19C8 18.7348 8.10536 18.4804 8.29289 18.2929C8.48043 18.1054 8.73478 18 9 18H10C10.2652 18 10.5196 18.1054 10.7071 18.2929C10.8946 18.4804 11 18.7348 11 19ZM24 15C24 15.2652 23.8946 15.5196 23.7071 15.7071C23.5196 15.8946 23.2652 16 23 16H22C21.7348 16 21.4804 15.8946 21.2929 15.7071C21.1054 15.5196 21 15.2652 21 15C21 14.7348 21.1054 14.4804 21.2929 14.2929C21.4804 14.1054 21.7348 14 22 14H23C23.2652 14 23.5196 14.1054 23.7071 14.2929C23.8946 14.4804 24 14.7348 24 15ZM24 19C24 19.2652 23.8946 19.5196 23.7071 19.7071C23.5196 19.8946 23.2652 20 23 20H22C21.7348 20 21.4804 19.8946 21.2929 19.7071C21.1054 19.5196 21 19.2652 21 19C21 18.7348 21.1054 18.4804 21.2929 18.2929C21.4804 18.1054 21.7348 18 22 18H23C23.2652 18 23.5196 18.1054 23.7071 18.2929C23.8946 18.4804 24 18.7348 24 19ZM18 12C18 12.3956 17.8827 12.7822 17.6629 13.1111C17.4432 13.44 17.1308 13.6964 16.7654 13.8478C16.3999 13.9991 15.9978 14.0387 15.6098 13.9616C15.2219 13.8844 14.8655 13.6939 14.5858 13.4142C14.3061 13.1345 14.1156 12.7781 14.0384 12.3902C13.9613 12.0022 14.0009 11.6001 14.1522 11.2346C14.3036 10.8692 14.56 10.5568 14.8889 10.3371C15.2178 10.1173 15.6044 10 16 10C16.5304 10 17.0391 10.2107 17.4142 10.5858C17.7893 10.9609 18 11.4696 18 12Z" fill="#111238"/>
</g>
<defs>
<filter id="filter0_d" x="0" y="0" width="32" height="32" filterUnits="userSpaceOnUse" color-interpolation-filters="sRGB">
<feFlood flood-opacity="0" result="BackgroundImageFix"/>
<feColorMatrix in="SourceAlpha" type="matrix" values="0 0 0 0 0 0 0 0 0 0 0 0 0 0 0 0 0 0 127 0"/>
<feOffset dy="4"/>
<feGaussianBlur stdDeviation="2"/>
<feColorMatrix type="matrix" values="0 0 0 0 0 0 0 0 0 0 0 0 0 0 0 0 0 0 0.25 0"/>
<feBlend mode="normal" in2="BackgroundImageFix" result="effect1_dropShadow"/>
<feBlend mode="normal" in="SourceGraphic" in2="effect1_dropShadow" result="shape"/>
</filter>
<clipPath id="clip0">
<rect width="24" height="24" fill="white" transform="translate(4)"/>
</clipPath>
</defs>
</svg>
